<?xml version="1.0" encoding="UTF-8" standalone="no"?>
<!DOCTYPE svg PUBLIC "-//W3C//DTD SVG 1.1//EN" "http://www.w3.org/Graphics/SVG/1.1/DTD/svg11.dtd">
<svg xmlns="http://www.w3.org/2000/svg" version="1.1" viewBox="0.00 0.00 2560.00 600.00">
<g stroke-width="2.00" fill="none" stroke-linecap="butt">
<path stroke="#85ceee" d="
  M 2227.59 222.54
  L 2198.62 223.07
  Q 2198.08 223.08 2198.08 223.61
  L 2197.88 261.26"
/>
<path stroke="#85ceee" d="
  M 1965.97 230.99
  C 1949.50 223.73 1934.54 221.02 1916.94 220.06"
/>
<path stroke="#85ceee" d="
  M 2003.25 390.99
  Q 2002.86 390.71 2002.58 391.08
  Q 1978.33 423.16 1937.28 430.89"
/>
<path stroke="#85ceee" d="
  M 2261.01 239.74
  L 2261.63 297.60"
/>
<path stroke="#85ceee" d="
  M 2261.75 355.18
  Q 2260.99 358.20 2260.99 360.50
  Q 2261.01 387.00 2261.00 413.50
  Q 2261.00 413.83 2261.50 414.04"
/>
<path stroke="#85ceee" d="
  M 2214.93 430.34
  L 2199.10 430.13
  A 1.11 1.11 0.0 0 1 2198.00 429.02
  L 2198.00 402.49
  A 0.42 0.42 0.0 0 0 2197.23 402.25
  C 2186.40 417.93 2167.20 427.88 2148.60 430.88"
/>
<path stroke="#85ceee" d="
  M 2120.64 430.89
  Q 2082.67 424.31 2065.15 390.97"
/>
<path stroke="#85ceee" d="
  M 2299.61 368.95
  Q 2286.81 326.50 2299.43 284.01"
/>
</g>
<path fill="#ffffff" d="
  M 2227.59 222.54
  L 2198.62 223.07
  Q 2198.08 223.08 2198.08 223.61
  L 2197.88 261.26
  L 2194.74 260.91
  A 0.71 0.69 88.8 0 1 2194.13 260.31
  Q 2193.81 257.92 2193.75 255.51
  C 2193.72 254.57 2193.50 254.27 2192.71 253.82
  A 0.92 0.91 13.6 0 1 2192.24 253.06
  Q 2191.59 237.49 2189.77 230.73
  C 2176.91 182.80 2130.75 156.58 2082.80 170.31
  Q 2082.38 170.43 2081.83 171.05
  Q 2081.50 171.43 2081.03 171.57
  C 2054.61 179.46 2036.80 202.54 2026.91 227.44
  A 1.43 1.43 0.0 0 1 2025.29 228.30
  C 2007.17 224.44 1991.93 221.39 1973.66 226.93
  C 1972.35 227.33 1971.37 228.16 1969.55 228.00
  A 0.50 0.50 0.0 0 0 1969.00 228.50
  L 1969.00 229.48
  A 0.59 0.59 0.0 0 1 1968.29 230.06
  Q 1966.06 229.62 1965.97 230.99
  C 1949.50 223.73 1934.54 221.02 1916.94 220.06
  C 1926.67 208.34 1939.26 197.83 1953.18 192.47
  C 1953.90 192.19 1954.09 191.54 1954.68 191.27
  Q 1964.02 187.03 1974.21 185.70
  Q 1974.70 185.63 1974.90 185.18
  Q 1975.33 184.19 1976.56 184.04
  C 1985.86 182.86 1996.19 182.18 2005.44 184.05
  A 1.77 1.76 25.1 0 0 2007.16 183.43
  Q 2010.64 179.11 2013.87 174.62
  C 2022.49 162.65 2035.11 151.16 2047.92 143.88
  Q 2049.80 142.81 2051.50 141.49
  C 2055.83 138.11 2062.19 136.04 2067.20 133.70
  Q 2074.93 130.09 2088.49 128.18
  C 2110.49 125.06 2135.58 126.63 2156.01 135.81
  C 2174.77 144.25 2191.28 155.97 2203.69 172.33
  C 2211.47 182.59 2217.04 192.68 2222.14 204.18
  C 2224.93 210.46 2226.16 216.16 2227.59 222.54
  Z"
/>
<rect fill="#0a9ddc" x="1712.00" y="155.00" width="63.00" height="275.00" rx="0.58"/>
<path fill="#0a9ddc" d="
  M 2299.61 368.95
  Q 2286.81 326.50 2299.43 284.01
  C 2309.86 253.01 2332.50 229.44 2364.73 222.21
  C 2395.16 215.39 2429.14 224.89 2447.54 250.81
  A 0.25 0.25 0.0 0 0 2448.00 250.67
  L 2448.00 155.50
  A 0.50 0.50 0.0 0 1 2448.50 155.00
  L 2510.50 155.00
  Q 2511.00 155.00 2511.00 155.50
  L 2511.00 429.50
  A 0.50 0.50 0.0 0 1 2510.50 430.00
  L 2448.50 430.00
  A 0.50 0.50 0.0 0 1 2448.00 429.50
  L 2448.00 401.35
  A 0.15 0.15 0.0 0 0 2447.72 401.26
  C 2434.79 419.99 2416.82 429.86 2394.63 432.33
  C 2349.86 437.33 2313.62 410.62 2299.61 368.95
  Z
  M 2374.69 367.81
  Q 2388.87 379.86 2406.95 377.95
  C 2440.65 374.40 2453.46 339.67 2446.12 310.20
  C 2434.48 263.44 2369.46 263.32 2359.09 310.56
  C 2354.65 330.81 2358.10 353.72 2374.69 367.81
  Z"
/>
<path fill="#0a9ddc" d="
  M 428.50 217.49
  L 428.50 159.51
  A 0.51 0.51 0.0 0 1 429.01 159.00
  L 530.49 159.00
  A 0.51 0.51 0.0 0 1 531.00 159.51
  L 531.00 429.49
  A 0.51 0.51 0.0 0 1 530.49 430.00
  L 465.51 430.00
  A 0.51 0.51 0.0 0 1 465.00 429.49
  L 465.00 218.51
  A 0.51 0.51 0.0 0 0 464.49 218.00
  L 429.01 218.00
  A 0.51 0.51 0.0 0 1 428.50 217.49
  Z"
/>
<path fill="#0a9ddc" d="
  M 637.78 428.18
  C 581.00 411.96 560.38 354.20 570.50 300.50
  C 578.65 257.29 610.23 227.54 653.66 221.27
  C 709.37 213.23 757.92 240.23 770.51 297.13
  Q 770.65 297.75 770.02 297.75
  L 703.97 297.75
  Q 703.41 297.75 703.20 297.23
  C 698.75 286.18 692.21 278.09 680.08 275.20
  C 664.96 271.60 650.91 276.25 641.96 288.78
  C 631.69 303.13 631.10 325.31 633.68 342.32
  C 637.08 364.66 652.58 382.70 677.04 378.54
  Q 696.60 375.21 702.97 355.65
  A 0.58 0.58 0.0 0 1 703.52 355.25
  L 769.99 355.25
  Q 770.44 355.25 770.35 355.69
  C 757.56 418.67 695.87 444.78 637.78 428.18
  Z"
/>
<path fill="#0a9ddc" d="
  M 1098.19 425.72
  C 1034.43 448.53 961.85 417.61 951.55 346.22
  C 943.44 289.92 970.03 237.56 1027.76 223.49
  C 1088.86 208.60 1152.04 240.25 1162.71 305.78
  C 1170.97 356.53 1148.75 407.64 1098.19 425.72
  Z
  M 1016.27 343.74
  C 1022.70 377.60 1062.11 389.44 1086.35 365.68
  C 1105.55 346.86 1104.94 301.53 1083.21 284.02
  C 1065.30 269.60 1037.93 272.56 1024.05 291.19
  C 1013.39 305.49 1012.97 326.38 1016.27 343.74
  Z"
/>
<path fill="#0a9ddc" d="
  M 1548.09 429.13
  C 1491.37 414.85 1468.63 359.81 1476.57 306.00
  C 1483.25 260.77 1513.56 228.75 1559.53 221.53
  C 1615.66 212.72 1665.23 240.24 1677.51 297.13
  Q 1677.64 297.75 1677.01 297.75
  L 1610.97 297.75
  Q 1610.41 297.75 1610.20 297.23
  C 1604.21 282.41 1594.55 274.38 1578.10 274.05
  C 1557.85 273.65 1545.10 288.42 1541.28 307.41
  C 1536.35 331.96 1539.25 373.42 1571.58 378.48
  C 1590.41 381.43 1603.29 372.67 1610.24 355.75
  Q 1610.44 355.25 1610.98 355.25
  L 1677.00 355.25
  Q 1677.53 355.25 1677.42 355.77
  C 1664.52 417.79 1605.28 443.53 1548.09 429.13
  Z"
/>
<path fill="#0a9ddc" d="
  M 1916.94 220.06
  C 1934.54 221.02 1949.50 223.73 1965.97 230.99
  C 1996.15 246.13 2015.44 272.79 2020.70 306.05
  C 2025.29 335.12 2020.54 365.43 2003.40 389.91
  Q 2003.15 390.27 2003.25 390.99
  Q 2002.86 390.71 2002.58 391.08
  Q 1978.33 423.16 1937.28 430.89
  C 1886.41 440.16 1835.75 419.31 1815.80 369.96
  C 1808.64 352.25 1807.00 332.60 1808.73 313.50
  C 1812.20 275.07 1834.85 242.72 1870.76 228.26
  Q 1892.48 219.50 1916.94 220.06
  Z
  M 1875.76 349.71
  C 1889.34 389.31 1944.16 386.33 1955.23 346.99
  Q 1960.36 328.78 1956.11 309.35
  C 1946.02 263.24 1883.18 263.68 1874.05 309.56
  C 1871.51 322.36 1871.75 338.01 1875.76 349.71
  Z"
/>
<path fill="#0a9ddc" d="
  M 371.88 242.12
  C 392.96 262.02 396.93 287.68 396.97 315.32
  Q 397.04 372.42 396.98 429.51
  A 0.49 0.49 0.0 0 1 396.49 430.00
  L 334.51 430.00
  A 0.52 0.51 -0.0 0 1 333.99 429.49
  Q 334.00 373.98 334.03 318.25
  C 334.04 291.18 318.02 273.80 290.33 276.07
  C 266.23 278.06 255.03 294.99 255.02 318.35
  Q 254.98 373.93 255.01 429.49
  A 0.52 0.51 0.0 0 1 254.49 430.00
  L 192.50 430.00
  A 0.52 0.51 -90.0 0 1 191.99 429.48
  Q 192.00 374.10 192.05 318.50
  C 192.06 302.68 186.98 287.56 172.23 280.18
  C 162.65 275.40 149.12 274.65 138.76 277.78
  C 117.39 284.23 113.06 302.59 113.03 322.32
  Q 112.96 375.91 113.01 429.48
  A 0.52 0.52 0.0 0 1 112.49 430.00
  L 50.50 430.00
  A 0.50 0.50 0.0 0 1 50.00 429.50
  L 50.00 223.50
  A 0.50 0.50 0.0 0 1 50.50 223.00
  L 112.50 223.00
  Q 113.00 223.00 113.00 223.50
  L 113.00 248.01
  Q 113.00 248.85 113.54 248.20
  Q 132.49 225.33 162.25 221.75
  C 194.90 217.83 226.08 230.06 243.22 258.92
  Q 243.52 259.43 243.85 258.94
  C 257.52 238.76 278.37 224.78 302.58 221.77
  C 326.99 218.73 353.55 224.81 371.88 242.12
  Z"
/>
<path fill="#0a9ddc" d="
  M 868.31 256.92
  A 0.15 0.15 0.0 0 0 868.56 256.93
  C 882.80 235.10 906.18 221.06 932.58 221.07
  A 0.42 0.42 0.0 0 1 933.00 221.49
  L 933.00 287.00
  Q 933.00 288.13 931.88 288.09
  C 899.02 287.15 868.42 288.78 868.21 331.07
  Q 867.96 380.32 867.98 429.49
  A 0.51 0.51 0.0 0 1 867.47 430.00
  L 805.50 430.00
  Q 805.00 430.00 805.00 429.50
  L 805.00 223.50
  Q 805.00 223.00 805.50 223.00
  L 867.48 223.00
  Q 867.96 223.00 867.96 223.48
  Q 868.05 239.77 868.07 255.99
  Q 868.07 256.49 868.31 256.92
  Z"
/>
<path fill="#0a9ddc" d="
  M 2227.59 222.54
  L 2229.06 222.98
  A 0.49 0.25 36.1 0 0 2229.19 223.00
  L 2260.48 223.00
  A 0.53 0.52 0.0 0 1 2261.01 223.52
  L 2261.01 239.74
  L 2261.63 297.60
  Q 2261.33 298.02 2261.12 298.36
  Q 2260.89 298.73 2260.90 299.21
  Q 2261.46 326.68 2260.92 354.15
  Q 2260.91 354.57 2261.15 354.78
  Q 2261.37 354.98 2261.75 355.18
  Q 2260.99 358.20 2260.99 360.50
  Q 2261.01 387.00 2261.00 413.50
  Q 2261.00 413.83 2261.50 414.04
  Q 2261.43 414.22 2261.27 414.37
  A 0.90 0.88 68.4 0 0 2261.00 415.01
  L 2261.00 429.01
  A 0.93 0.93 0.0 0 1 2260.08 429.94
  L 2214.93 430.34
  L 2199.10 430.13
  A 1.11 1.11 0.0 0 1 2198.00 429.02
  L 2198.00 402.49
  A 0.42 0.42 0.0 0 0 2197.23 402.25
  C 2186.40 417.93 2167.20 427.88 2148.60 430.88
  Q 2134.75 433.07 2120.64 430.89
  Q 2082.67 424.31 2065.15 390.97
  Q 2055.24 370.17 2055.07 348.43
  Q 2054.86 321.70 2055.05 223.47
  Q 2055.05 223.00 2055.53 223.00
  L 2117.49 223.00
  Q 2118.00 223.00 2118.00 223.51
  Q 2118.02 279.65 2117.98 335.75
  C 2117.96 365.94 2139.43 384.90 2169.54 377.43
  C 2188.76 372.65 2197.61 356.47 2197.81 337.68
  C 2198.08 312.20 2197.75 286.74 2197.88 261.26
  L 2198.08 223.61
  Q 2198.08 223.08 2198.62 223.07
  L 2227.59 222.54
  Z"
/>
<path fill="#ffffff" d="
  M 2261.01 239.74
  C 2272.57 247.98 2283.99 257.51 2290.31 267.95
  Q 2292.95 272.32 2295.79 276.59
  C 2297.33 278.89 2298.18 281.49 2299.43 284.01
  Q 2286.81 326.50 2299.61 368.95
  C 2292.64 384.31 2280.65 400.96 2266.40 410.18
  C 2264.69 411.28 2263.53 413.64 2261.50 414.04
  Q 2261.00 413.83 2261.00 413.50
  Q 2261.01 387.00 2260.99 360.50
  Q 2260.99 358.20 2261.75 355.18
  Q 2263.02 349.61 2265.12 344.53
  Q 2266.95 340.11 2267.40 337.22
  Q 2269.04 326.74 2267.47 316.34
  C 2266.58 310.40 2263.63 303.78 2261.63 297.60
  L 2261.01 239.74
  Z"
/>
<path fill="#ffffff" d="
  M 2003.25 390.99
  L 2065.15 390.97
  Q 2082.67 424.31 2120.64 430.89
  L 1937.28 430.89
  Q 1978.33 423.16 2002.58 391.08
  Q 2002.86 390.71 2003.25 390.99
  Z"
/>
<path fill="#ffffff" d="
  M 2214.93 430.34
  Q 2212.53 430.92 2210.06 430.94
  Q 2179.52 431.14 2148.60 430.88
  C 2167.20 427.88 2186.40 417.93 2197.23 402.25
  A 0.42 0.42 0.0 0 1 2198.00 402.49
  L 2198.00 429.02
  A 1.11 1.11 0.0 0 0 2199.10 430.13
  L 2214.93 430.34
  Z"
/>
<rect fill="#0a9ddc" x="1207.00" y="445.00" width="229.00" height="61.00" rx="0.27"/>
</svg>
