<?xml version="1.0" encoding="UTF-8" standalone="no"?>
<!DOCTYPE svg PUBLIC "-//W3C//DTD SVG 1.1//EN" "http://www.w3.org/Graphics/SVG/1.1/DTD/svg11.dtd">
<svg xmlns="http://www.w3.org/2000/svg" version="1.1" viewBox="0.00 0.00 1280.00 1280.00">
<g stroke-width="2.00" fill="none" stroke-linecap="butt">
<path stroke="#85ceee" d="
  M 765.13 433.82
  Q 764.21 433.87 763.44 433.55
  C 735.95 422.16 706.46 417.96 676.81 419.04
  C 618.43 421.18 564.70 452.47 533.50 501.61
  A 0.38 0.38 0.0 0 1 532.85 501.59
  C 497.85 438.38 427.87 412.38 358.50 419.93
  C 316.72 424.48 276.98 445.16 251.48 478.92
  A 0.27 0.27 0.0 0 1 251.00 478.76
  L 251.00 423.50
  Q 251.00 423.00 250.50 423.00
  L 114.50 423.00
  Q 114.00 423.00 114.00 423.50
  L 114.00 869.50
  Q 114.00 870.00 114.50 870.00
  L 250.49 870.00
  Q 251.00 870.00 251.00 869.49
  Q 251.01 745.15 251.01 620.81
  Q 251.01 608.82 254.78 595.07
  C 264.24 560.58 289.88 540.73 325.18 537.47
  C 381.65 532.25 421.95 564.78 421.97 623.01
  Q 422.02 746.21 422.00 869.46
  Q 422.00 869.98 422.52 869.98
  C 460.21 870.02 498.13 869.14 535.73 870.48
  Q 547.03 870.89 558.01 870.56"
/>
<path stroke="#868686" d="
  M 558.01 870.56
  L 729.50 870.60"
/>
<path stroke="#85ceee" d="
  M 729.50 870.60
  L 864.99 870.58"
/>
<path stroke="#868686" d="
  M 864.99 870.58
  Q 939.48 870.48 1013.94 870.22
  C 1068.78 870.03 1118.87 842.44 1148.49 797.00
  C 1177.40 752.65 1183.30 695.32 1161.48 646.51
  C 1140.97 600.63 1100.25 567.74 1051.37 555.46
  Q 1050.87 555.33 1050.77 554.82
  C 1032.05 464.58 954.40 398.64 861.05 401.29
  C 826.58 402.27 793.43 413.89 765.13 433.82"
/>
<path stroke="#0c5575" d="
  M 864.99 870.58
  L 865.28 812.24"
/>
<path stroke="#868686" d="
  M 865.28 812.24
  Q 935.37 812.29 1005.43 812.22
  Q 1019.38 812.21 1025.42 811.52
  C 1090.92 804.08 1131.73 738.18 1111.02 676.12
  C 1099.48 641.55 1069.72 615.86 1034.13 608.60
  C 1024.57 606.65 1012.24 606.18 1001.36 605.32
  Q 1000.85 605.28 1000.79 604.77
  Q 998.32 580.68 997.25 572.99
  C 985.29 486.62 896.34 437.65 816.18 469.25"
/>
<path stroke="#0c5575" d="
  M 816.18 469.25
  Q 794.33 446.64 765.13 433.82"
/>
<path stroke="#85ceee" d="
  M 816.18 469.25
  Q 816.23 469.55 816.83 470.19
  Q 846.41 501.92 857.19 544.56
  C 863.51 569.51 864.99 592.63 865.00 619.59
  Q 865.00 715.65 865.00 811.70
  Q 865.00 811.90 865.15 812.02
  Q 865.26 812.10 865.28 812.24"
/>
<path stroke="#0c5575" d="
  M 729.50 870.60
  Q 729.72 870.39 729.30 869.96
  Q 729.00 869.65 729.00 869.22
  L 729.00 813.03
  Q 729.00 812.85 728.87 812.73
  Q 728.70 812.58 728.71 812.25"
/>
<path stroke="#85ceee" d="
  M 728.71 812.25
  Q 728.99 811.54 728.99 811.25
  Q 729.04 765.84 728.98 627.99
  C 728.98 616.59 728.19 607.67 725.76 597.52
  C 714.18 549.08 671.11 531.31 625.29 538.31
  C 580.88 545.08 558.02 580.59 558.01 624.25
  Q 557.98 718.25 558.01 812.25"
/>
<path stroke="#0c5575" d="
  M 558.01 812.25
  L 558.01 870.56"
/>
<path stroke="#868686" d="
  M 728.71 812.25
  L 558.01 812.25"
/>
</g>
<path fill="#ffffff" d="
  M 0.00 0.00
  L 1280.00 0.00
  L 1280.00 1280.00
  L 0.00 1280.00
  L 0.00 0.00
  Z
  M 765.13 433.82
  Q 764.21 433.87 763.44 433.55
  C 735.95 422.16 706.46 417.96 676.81 419.04
  C 618.43 421.18 564.70 452.47 533.50 501.61
  A 0.38 0.38 0.0 0 1 532.85 501.59
  C 497.85 438.38 427.87 412.38 358.50 419.93
  C 316.72 424.48 276.98 445.16 251.48 478.92
  A 0.27 0.27 0.0 0 1 251.00 478.76
  L 251.00 423.50
  Q 251.00 423.00 250.50 423.00
  L 114.50 423.00
  Q 114.00 423.00 114.00 423.50
  L 114.00 869.50
  Q 114.00 870.00 114.50 870.00
  L 250.49 870.00
  Q 251.00 870.00 251.00 869.49
  Q 251.01 745.15 251.01 620.81
  Q 251.01 608.82 254.78 595.07
  C 264.24 560.58 289.88 540.73 325.18 537.47
  C 381.65 532.25 421.95 564.78 421.97 623.01
  Q 422.02 746.21 422.00 869.46
  Q 422.00 869.98 422.52 869.98
  C 460.21 870.02 498.13 869.14 535.73 870.48
  Q 547.03 870.89 558.01 870.56
  L 729.50 870.60
  L 864.99 870.58
  Q 939.48 870.48 1013.94 870.22
  C 1068.78 870.03 1118.87 842.44 1148.49 797.00
  C 1177.40 752.65 1183.30 695.32 1161.48 646.51
  C 1140.97 600.63 1100.25 567.74 1051.37 555.46
  Q 1050.87 555.33 1050.77 554.82
  C 1032.05 464.58 954.40 398.64 861.05 401.29
  C 826.58 402.27 793.43 413.89 765.13 433.82
  Z"
/>
<path fill="#0d0d0d" d="
  M 864.99 870.58
  L 865.28 812.24
  Q 935.37 812.29 1005.43 812.22
  Q 1019.38 812.21 1025.42 811.52
  C 1090.92 804.08 1131.73 738.18 1111.02 676.12
  C 1099.48 641.55 1069.72 615.86 1034.13 608.60
  C 1024.57 606.65 1012.24 606.18 1001.36 605.32
  Q 1000.85 605.28 1000.79 604.77
  Q 998.32 580.68 997.25 572.99
  C 985.29 486.62 896.34 437.65 816.18 469.25
  Q 794.33 446.64 765.13 433.82
  C 793.43 413.89 826.58 402.27 861.05 401.29
  C 954.40 398.64 1032.05 464.58 1050.77 554.82
  Q 1050.87 555.33 1051.37 555.46
  C 1100.25 567.74 1140.97 600.63 1161.48 646.51
  C 1183.30 695.32 1177.40 752.65 1148.49 797.00
  C 1118.87 842.44 1068.78 870.03 1013.94 870.22
  Q 939.48 870.48 864.99 870.58
  Z"
/>
<path fill="#0a9ddc" d="
  M 765.13 433.82
  Q 794.33 446.64 816.18 469.25
  Q 816.23 469.55 816.83 470.19
  Q 846.41 501.92 857.19 544.56
  C 863.51 569.51 864.99 592.63 865.00 619.59
  Q 865.00 715.65 865.00 811.70
  Q 865.00 811.90 865.15 812.02
  Q 865.26 812.10 865.28 812.24
  L 864.99 870.58
  L 729.50 870.60
  Q 729.72 870.39 729.30 869.96
  Q 729.00 869.65 729.00 869.22
  L 729.00 813.03
  Q 729.00 812.85 728.87 812.73
  Q 728.70 812.58 728.71 812.25
  Q 728.99 811.54 728.99 811.25
  Q 729.04 765.84 728.98 627.99
  C 728.98 616.59 728.19 607.67 725.76 597.52
  C 714.18 549.08 671.11 531.31 625.29 538.31
  C 580.88 545.08 558.02 580.59 558.01 624.25
  Q 557.98 718.25 558.01 812.25
  L 558.01 870.56
  Q 547.03 870.89 535.73 870.48
  C 498.13 869.14 460.21 870.02 422.52 869.98
  Q 422.00 869.98 422.00 869.46
  Q 422.02 746.21 421.97 623.01
  C 421.95 564.78 381.65 532.25 325.18 537.47
  C 289.88 540.73 264.24 560.58 254.78 595.07
  Q 251.01 608.82 251.01 620.81
  Q 251.01 745.15 251.00 869.49
  Q 251.00 870.00 250.49 870.00
  L 114.50 870.00
  Q 114.00 870.00 114.00 869.50
  L 114.00 423.50
  Q 114.00 423.00 114.50 423.00
  L 250.50 423.00
  Q 251.00 423.00 251.00 423.50
  L 251.00 478.76
  A 0.27 0.27 0.0 0 0 251.48 478.92
  C 276.98 445.16 316.72 424.48 358.50 419.93
  C 427.87 412.38 497.85 438.38 532.85 501.59
  A 0.38 0.38 0.0 0 0 533.50 501.61
  C 564.70 452.47 618.43 421.18 676.81 419.04
  C 706.46 417.96 735.95 422.16 763.44 433.55
  Q 764.21 433.87 765.13 433.82
  Z"
/>
<path fill="#ffffff" d="
  M 865.28 812.24
  Q 865.26 812.10 865.15 812.02
  Q 865.00 811.90 865.00 811.70
  Q 865.00 715.65 865.00 619.59
  C 864.99 592.63 863.51 569.51 857.19 544.56
  Q 846.41 501.92 816.83 470.19
  Q 816.23 469.55 816.18 469.25
  C 896.34 437.65 985.29 486.62 997.25 572.99
  Q 998.32 580.68 1000.79 604.77
  Q 1000.85 605.28 1001.36 605.32
  C 1012.24 606.18 1024.57 606.65 1034.13 608.60
  C 1069.72 615.86 1099.48 641.55 1111.02 676.12
  C 1131.73 738.18 1090.92 804.08 1025.42 811.52
  Q 1019.38 812.21 1005.43 812.22
  Q 935.37 812.29 865.28 812.24
  Z"
/>
<path fill="#ffffff" d="
  M 728.71 812.25
  L 558.01 812.25
  Q 557.98 718.25 558.01 624.25
  C 558.02 580.59 580.88 545.08 625.29 538.31
  C 671.11 531.31 714.18 549.08 725.76 597.52
  C 728.19 607.67 728.98 616.59 728.98 627.99
  Q 729.04 765.84 728.99 811.25
  Q 728.99 811.54 728.71 812.25
  Z"
/>
<path fill="#0d0d0d" d="
  M 558.01 812.25
  L 728.71 812.25
  Q 728.70 812.58 728.87 812.73
  Q 729.00 812.85 729.00 813.03
  L 729.00 869.22
  Q 729.00 869.65 729.30 869.96
  Q 729.72 870.39 729.50 870.60
  L 558.01 870.56
  L 558.01 812.25
  Z"
/>
</svg>
