<?xml version="1.0" encoding="UTF-8" standalone="no"?>
<!DOCTYPE svg PUBLIC "-//W3C//DTD SVG 1.1//EN" "http://www.w3.org/Graphics/SVG/1.1/DTD/svg11.dtd">
<svg xmlns="http://www.w3.org/2000/svg" version="1.1" viewBox="0.00 0.00 1094.00 125.00">
<path fill="#ffffff" d="
  M 116.58 125.00
  L 85.60 125.00
  L 99.67 67.79
  A 0.27 0.27 0.0 0 0 99.24 67.52
  L 69.40 91.63
  A 0.63 0.63 0.0 0 1 68.50 91.51
  L 26.16 34.38
  Q 25.70 33.76 25.89 33.01
  L 33.86 0.85
  Q 33.98 0.35 34.50 0.35
  L 43.20 0.39
  A 1.07 1.05 71.4 0 1 44.05 0.82
  L 78.48 47.34
  Q 78.82 47.79 79.25 47.44
  L 136.99 0.74
  Q 137.44 0.38 138.02 0.38
  L 146.90 0.36
  A 0.36 0.35 -83.7 0 1 147.25 0.80
  L 116.58 125.00
  Z"
/>
<path fill="#ffffff" fill-opacity="0.761" d="
  M 1061.63 125.00
  L 1033.01 125.00
  Q 1032.75 124.73 1032.07 124.73
  Q 1031.48 124.73 1031.55 124.15
  Q 1031.60 123.69 1031.96 123.34
  A 1.25 1.22 -16.4 0 0 1032.29 122.75
  L 1045.65 68.55
  A 0.54 0.54 0.0 0 0 1044.79 68.00
  L 1016.09 91.13
  Q 1014.99 92.02 1014.14 90.88
  L 972.13 34.19
  A 1.00 0.99 -56.8 0 1 971.96 33.34
  L 979.92 0.94
  Q 980.05 0.41 980.59 0.41
  L 989.17 0.47
  A 1.38 1.37 -18.2 0 1 990.27 1.02
  L 1024.48 47.22
  A 0.76 0.75 52.3 0 0 1025.56 47.36
  L 1083.07 0.79
  A 1.53 1.52 -64.5 0 1 1084.03 0.45
  L 1092.75 0.46
  A 0.56 0.55 -82.6 0 1 1093.28 1.15
  Q 1078.41 61.42 1063.54 121.53
  Q 1063.53 121.58 1063.36 123.50
  Q 1063.24 124.93 1061.63 125.00
  Z"
/>
<path fill="#ffffff" d="
  M 205.26 125.00
  L 174.35 125.00
  Q 180.72 98.50 187.31 72.18
  C 188.22 68.55 187.12 66.82 185.61 63.67
  Q 171.07 33.49 156.15 1.77
  Q 155.70 0.81 156.75 0.81
  L 192.45 0.81
  A 1.10 1.10 0.0 0 1 193.44 1.43
  L 210.58 37.45
  Q 210.86 38.04 211.31 37.57
  L 246.63 1.15
  A 1.20 1.18 -67.2 0 1 247.47 0.80
  L 284.49 0.82
  Q 286.00 0.82 284.95 1.91
  Q 253.11 34.93 221.69 67.20
  C 218.38 70.59 218.22 72.67 216.85 78.17
  Q 211.02 101.61 205.26 125.00
  Z"
/>
<path fill="#ffffff" d="
  M 538.47 125.00
  L 507.50 125.00
  L 537.96 1.59
  A 0.79 0.78 -82.9 0 1 538.72 0.99
  L 568.48 1.00
  A 0.57 0.57 0.0 0 1 569.03 1.70
  L 538.47 125.00
  Z"
/>
<path fill="#ffffff" d="
  M 340.94 125.00
  L 276.48 125.00
  C 262.02 118.49 256.79 102.26 261.80 87.62
  Q 261.92 87.28 262.28 87.28
  L 291.26 87.26
  A 0.53 0.53 0.0 0 1 291.79 87.84
  C 291.53 90.91 289.63 96.83 294.90 96.80
  Q 310.63 96.71 326.35 96.80
  Q 333.83 96.85 336.51 95.70
  Q 341.85 93.41 343.23 86.74
  C 344.31 81.52 340.91 80.21 336.42 80.21
  Q 325.65 80.20 314.89 80.17
  Q 299.35 80.13 296.18 79.51
  Q 286.26 77.55 279.29 69.97
  C 268.23 57.96 271.52 37.71 279.85 25.14
  C 289.18 11.06 304.85 1.43 322.00 1.33
  Q 340.25 1.23 358.49 1.51
  Q 376.62 1.79 384.49 16.53
  Q 390.49 27.78 385.97 41.38
  Q 385.80 41.89 385.27 41.89
  L 356.73 41.87
  A 0.96 0.95 -80.3 0 1 355.84 40.60
  C 356.96 37.36 357.72 32.42 352.56 32.40
  Q 335.13 32.33 317.71 32.40
  C 310.88 32.43 305.97 34.57 304.15 41.28
  C 303.00 45.48 304.48 48.85 309.25 48.88
  Q 326.24 49.00 343.22 49.13
  Q 362.22 49.28 370.79 63.84
  C 375.59 71.99 376.27 82.38 373.30 91.26
  Q 365.19 115.52 340.94 125.00
  Z"
/>
<path fill="#ffffff" d="
  M 407.54 1.25
  L 519.74 1.25
  A 0.68 0.68 0.0 0 1 520.40 2.09
  L 513.01 31.86
  A 0.68 0.68 0.0 0 1 512.35 32.38
  L 400.17 32.37
  A 0.68 0.68 0.0 0 1 399.51 31.53
  L 406.88 1.77
  A 0.68 0.68 0.0 0 1 407.54 1.25
  Z"
/>
<path fill="#ffffff" d="
  M 587.19 1.25
  L 698.68 1.25
  A 0.58 0.58 0.0 0 1 699.24 1.97
  L 691.85 31.94
  A 0.58 0.58 0.0 0 1 691.29 32.38
  L 579.80 32.38
  A 0.58 0.58 0.0 0 1 579.24 31.66
  L 586.63 1.69
  A 0.58 0.58 0.0 0 1 587.19 1.25
  Z"
/>
<path fill="#ffffff" fill-opacity="0.761" d="
  M 798.75 125.00
  L 769.01 125.00
  L 767.92 124.64
  Q 767.38 124.46 767.66 123.96
  Q 768.30 122.79 768.62 121.50
  Q 774.12 99.30 779.58 77.24
  A 0.62 0.61 -83.0 0 0 778.99 76.47
  L 731.23 76.49
  A 1.39 1.39 0.0 0 0 729.88 77.55
  L 718.44 123.99
  Q 718.30 124.58 717.70 124.73
  L 716.62 125.00
  L 688.52 125.00
  L 687.66 124.63
  Q 687.37 124.51 687.45 124.21
  L 717.64 1.98
  Q 717.77 1.46 718.31 1.46
  L 747.97 1.48
  A 0.56 0.55 7.2 0 1 748.51 2.17
  L 738.13 44.27
  A 0.66 0.66 0.0 0 0 738.77 45.09
  L 786.19 45.15
  Q 787.55 45.15 787.87 43.83
  L 798.25 1.85
  Q 798.35 1.43 798.78 1.43
  L 828.49 1.46
  A 0.65 0.64 -83.2 0 1 829.11 2.26
  L 798.75 125.00
  Z"
/>
<path fill="#ffffff" fill-opacity="0.761" d="
  M 892.73 125.00
  L 855.98 125.00
  C 839.99 120.12 827.90 106.55 827.49 90.05
  Q 827.34 84.28 830.59 71.19
  Q 839.19 36.46 847.68 1.93
  A 0.87 0.87 0.0 0 1 848.53 1.26
  L 877.74 1.26
  Q 878.79 1.26 878.54 2.28
  Q 870.13 36.23 861.68 70.74
  C 858.37 84.28 864.56 95.85 879.10 96.84
  C 891.45 97.69 904.04 88.44 909.71 78.40
  Q 912.33 73.77 914.83 63.68
  Q 922.52 32.73 930.16 1.77
  Q 930.28 1.25 930.82 1.25
  L 960.64 1.27
  A 0.46 0.46 0.0 0 1 961.08 1.83
  Q 953.28 33.65 945.34 65.54
  Q 940.92 83.34 940.36 84.88
  C 933.01 105.21 912.96 119.47 892.73 125.00
  Z"
/>
<path fill="#ffffff" d="
  M 447.76 125.00
  L 416.70 125.00
  L 436.37 45.44
  Q 436.49 44.96 437.00 44.96
  L 467.02 44.95
  A 0.41 0.40 -83.2 0 1 467.41 45.45
  L 447.76 125.00
  Z"
/>
<path fill="#ffffff" d="
  M 668.73 125.00
  L 556.13 125.00
  L 575.84 45.30
  A 0.62 0.62 0.0 0 1 576.44 44.83
  L 677.56 45.01
  A 0.26 0.26 0.0 0 1 677.81 45.33
  L 670.33 75.52
  Q 670.17 76.18 669.49 76.18
  L 599.70 76.17
  Q 599.25 76.17 599.14 76.60
  L 594.26 96.20
  A 0.45 0.45 0.0 0 0 594.70 96.77
  L 675.25 96.78
  A 0.41 0.41 0.0 0 1 675.65 97.29
  L 668.73 125.00
  Z"
/>
<path fill="#ffffff" d="
  M 34.18 125.00
  L 3.21 125.00
  L 21.01 52.82
  Q 21.16 52.25 21.51 52.72
  L 44.10 83.19
  Q 44.40 83.60 44.28 84.09
  L 34.18 125.00
  Z"
/>
<path fill="#ffffff" fill-opacity="0.761" d="
  M 979.12 125.00
  L 950.26 125.00
  L 949.27 124.44
  Q 948.82 124.20 949.22 123.88
  Q 949.45 123.69 949.64 123.47
  Q 949.82 123.28 949.89 122.98
  Q 958.36 87.94 967.14 52.98
  Q 967.30 52.33 967.70 52.87
  L 990.21 83.20
  Q 990.51 83.62 990.39 84.12
  Q 985.58 103.45 980.82 122.74
  Q 980.80 122.81 980.72 123.71
  Q 980.62 124.79 979.12 125.00
  Z"
/>
</svg>
